<?xml version="1.0" ?><svg id="Layer_1" style="enable-background:new 0 0 48 48;" version="1.1" viewBox="0 0 48 48" xml:space="preserve" xmlns="http://www.w3.org/2000/svg" xmlns:xlink="http://www.w3.org/1999/xlink"><style type="text/css">
	.st0{fill:#231F20;}
</style><path class="st0" d="M46.7,45.3l-9.8-9.8c2-2.3,3.1-5.2,3.1-8.4c0-6-4.1-11.1-9.7-12.6c0.5-1.1,0.7-2.3,0.7-3.4  c0-2.3-0.9-4.6-2.6-6.4c-3.2-3.2-8.3-3.5-11.9-0.7C15,2.7,13.1,2,11,2C8.7,2,6.4,2.9,4.6,4.6C1.2,8,1.1,13.5,4.4,17.2l0,0  c0.5,0.6,2,2.1,6.1,6.2c1.3,1.3,2.5,2.5,3.5,3.5c0,0.1,0,0.1,0,0.2c0,7.2,5.8,13,13,13c3.2,0,6.2-1.2,8.4-3.1l9.8,9.8L46.7,45.3z   M11.9,21.9c-2.3-2.2-5-5-5.8-5.8l-0.3-0.3C3.3,13,3.3,8.7,6,6c1.4-1.3,3.2-2,5-2c1.9,0,3.6,0.7,4.8,1.9l0.7,0.7l0.7-0.7  C20,3.3,24.3,3.3,27,6c1.3,1.4,2,3.2,2,5c0,1.1-0.3,2.1-0.8,3.1C27.8,14,27.4,14,27,14c-6.2,0-11.5,4.4-12.7,10.3  C13.6,23.6,12.8,22.8,11.9,21.9z M27,38c-6.1,0-11-4.9-11-11s4.9-11,11-11s11,4.9,11,11S33.1,38,27,38z"/></svg>