<?xml version="1.0" ?><!DOCTYPE svg  PUBLIC '-//W3C//DTD SVG 1.1//EN'  'http://www.w3.org/Graphics/SVG/1.1/DTD/svg11.dtd'><svg enable-background="new 0 0 64 64" height="64px" id="Layer_1" version="1.1" viewBox="0 0 64 64" width="64px" xml:space="preserve" xmlns="http://www.w3.org/2000/svg" xmlns:xlink="http://www.w3.org/1999/xlink"><g><path d="M62.912,34.235c0-3.557-2.449-6.518-5.748-7.35c-0.034-0.016-0.052-0.032-0.09-0.045   c-1.593-0.574-1.514-1.884-1.514-1.884c0-4.013-3.115-7.265-7.053-7.553c-0.041-0.014-0.061-0.035-0.12-0.043   c-1.082-0.141-1.002-1.241-1.002-1.241h-0.012c0.007-0.122,0.022-0.244,0.022-0.369c0-3.988-3.082-7.224-6.988-7.546   c-0.087-0.023-0.163-0.047-0.288-0.054c-1.56-0.094-1.448-1.27-1.448-1.27h-0.038C38.255,3.03,35.048,0.012,31.1,0.012   c-3.205,0-5.935,1.985-7.057,4.79c-0.082,0.164-0.157,0.32-0.199,0.419L9.479,40.019c-0.678,1.649,0.247,2.515,0.247,2.515   l11.909,12.286l0.003,0.003l0.098,0.102c0.306,0.303,1.423,1.134,3.715,0.152l22.924-9.823l9.466-3.866   c0.099-0.035,0.193-0.08,0.289-0.118l0.49-0.2l-0.021-0.021C61.142,39.818,62.912,37.249,62.912,34.235z" fill="#241F20"/><path d="M7.443,47.287c-0.003-0.004-0.007-0.006-0.01-0.009c-1.455-1.431-2.662-0.83-3.186-0.434   c-1.843,1.723-3.047,4.131-3.151,6.853c-0.209,5.47,4.05,10.074,9.521,10.283c3.268,0.127,6.224-1.346,8.122-3.717   c0.731-1.186-0.367-2.238-0.367-2.238L7.443,47.287z" fill="#241F20"/></g></svg>